Coordinates
version=1
nRows=14
nColumns=24
inDegrees=yes

Units are S.I. units (second, meters, Newtons, ...)
Angles are in degrees.

endheader
time	pelvis_tilt	pelvis_list	pelvis_rotation	pelvis_tx	pelvis_ty	pelvis_tz	hip_flexion_r	hip_adduction_r	hip_rotation_r	knee_angle_r	ankle_angle_r	subtalar_angle_r	mtp_angle_r	hip_flexion_l	hip_adduction_l	hip_rotation_l	knee_angle_l	ankle_angle_l	subtalar_angle_l	mtp_angle_l	lumbar_extension	lumbar_bending	lumbar_rotation
      5.81000000	    -12.84691189	      6.62488431	      5.35687105	     -0.34537497	     -0.03591484	      2.03936255	     14.20813755	    -12.15998965	    -14.88108414	    -56.54211924	    -19.45379157	     -1.74252227	     -5.43606126	     30.87060494	     12.83949020	     -2.06531411	    -22.13000664	     -3.55133203	     -7.31437322	     15.04637361	     10.52083070	     -9.34024208	     -3.58924056
      5.82000000	    -12.87230206	      6.68859450	      5.23027123	     -0.33377601	     -0.03438624	      2.03908184	     16.09330505	    -12.06826298	    -13.75301678	    -58.48228274	    -17.64335894	     -3.91219015	     -8.42185248	     29.95711651	     12.74446056	     -2.63721977	    -21.79380463	     -3.16291737	     -6.98388456	     17.45779971	     10.45805833	     -9.39700677	     -3.62878132
      5.83000000	    -12.96477241	      6.65683225	      5.08625952	     -0.32231863	     -0.03281809	      2.03878236	     18.06339132	    -11.81883550	    -12.62994597	    -60.12807556	    -15.84421710	     -5.82219775	    -11.24604537	     29.08766549	     12.57942993	     -3.02597156	    -21.41696620	     -2.69257310	     -6.65041273	     18.98558795	     10.47400254	     -9.33661777	     -3.66795607
      5.84000000	    -12.85943184	      6.66391440	      4.89078190	     -0.31084594	     -0.03094459	      2.03859057	     19.77864316	    -11.53936621	    -11.50744374	    -61.46240550	    -13.89758094	     -7.31516374	    -14.93134224	     27.89658902	     12.45208412	     -3.25069244	    -20.89674221	     -2.06399728	     -6.24583641	     19.47500132	     10.28561117	     -9.28782480	     -3.66014745
      5.85000000	    -12.72009172	      6.64154011	      4.72789593	     -0.29942351	     -0.02904320	      2.03825033	     21.39827232	    -11.23460023	    -10.49677747	    -62.48778347	    -12.06933641	     -8.47511432	    -18.10257589	     26.59893477	     12.38196713	     -3.13644744	    -20.29763278	     -1.31000370	     -6.01575833	     18.46253781	     10.06169132	     -9.19423095	     -3.68588748
      5.86000000	    -12.54535328	      6.59683889	      4.59629750	     -0.28804169	     -0.02715598	      2.03778181	     22.91291836	    -10.91670798	     -9.59712159	    -63.20940498	    -10.32646523	     -9.31738257	    -20.80965428	     25.21193213	     12.35215181	     -2.79801919	    -19.61532903	     -0.61585572	     -6.02799334	     16.82874431	      9.80040900	     -9.06740659	     -3.78425236
      5.87000000	    -12.36947084	      6.47329513	      4.52776936	     -0.27673612	     -0.02536741	      2.03719582	     24.33921546	    -10.53722026	     -8.85977124	    -63.61214934	     -8.66047192	     -9.91298182	    -22.93755548	     23.81595476	     12.28993781	     -2.29599017	    -18.91188184	      0.05038885	     -6.16668736	     15.02634967	      9.52896932	     -8.86482822	     -3.96320439
      5.88000000	    -12.22305969	      6.31746581	      4.45472542	     -0.26548781	     -0.02371985	      2.03659619	     25.72502167	    -10.13068444	     -8.22630344	    -63.69206057	     -7.31871872	    -10.40453035	    -23.09356850	     22.44468227	     12.18306999	     -1.86231370	    -18.11589826	      0.35663305	     -6.50442179	     14.65173851	      9.28849927	     -8.62463722	     -4.14078835
      5.89000000	    -12.02703273	      5.99570959	      4.52542798	     -0.25438470	     -0.02212721	      2.03588143	     26.92980812	     -9.59167194	     -7.80934963	    -63.46749432	     -5.53161296	    -10.43978488	    -25.58892136	     21.12410378	     11.94241607	     -1.29316361	    -17.59007430	      1.30965690	     -6.34907208	     12.02609249	      8.96510785	     -8.24343676	     -4.51353827
      5.90000000	    -11.88801779	      5.67892806	      4.64910822	     -0.24332242	     -0.02071805	      2.03506416	     28.09906991	     -9.12548997	     -7.53968304	    -62.94159007	     -4.15775177	    -10.40718149	    -25.56944265	     19.85651656	     11.71256235	     -0.76916824	    -16.93633424	      1.58929235	     -6.59045052	     11.93473344	      8.70189942	     -7.87717621	     -4.88790504
      5.91000000	    -11.63080334	      5.31918838	      4.75413033	     -0.23232047	     -0.01925591	      2.03430618	     29.05114902	     -8.59979572	     -7.31306360	    -62.14093488	     -2.49091413	    -10.07225249	    -27.65122661	     18.49566160	     11.39915017	     -0.34174763	    -16.35414676	      2.13588424	     -6.59007270	     10.94912099	      8.30752480	     -7.45292341	     -5.23173850
      5.92000000	    -11.51023326	      4.86252804	      5.04577554	     -0.22142540	     -0.01802791	      2.03329973	     30.02534103	     -8.12433738	     -7.40074437	    -61.04299721	     -1.32062601	     -9.82119915	    -27.76850229	     17.32142801	     11.03204458	      0.20743416	    -15.80230375	      2.46833277	     -6.64726396	     10.97082330	      8.04199393	     -6.96635143	     -5.76357695
      5.93000000	    -11.36796317	      4.44097914	      5.33216094	     -0.21055949	     -0.01691613	      2.03231057	     30.90373235	     -7.71828289	     -7.54083269	    -59.73408533	     -0.17734651	     -9.41332795	    -27.98178531	     16.13408850	     10.66151217	      0.59547835	    -15.25098164	      2.84023636	     -6.54040138	     10.99053881	      7.75240985	     -6.50871877	     -6.27675627
      5.94000000	    -11.27345551	      4.01893351	      5.65642173	     -0.19966731	     -0.01600532	      2.03127189	     31.75694464	     -7.37365796	     -7.78616752	    -58.22559117	      0.82194851	     -8.94023482	    -28.23849185	     14.99370518	     10.28023284	      1.00571378	    -14.68799469	      3.26798111	     -6.33261986	     11.04507070	      7.52666337	     -6.05732247	     -6.73697947
